<?xml version="1.0" encoding="UTF-8"?> <svg xmlns="http://www.w3.org/2000/svg" xmlns:xlink="http://www.w3.org/1999/xlink" width="1080" zoomAndPan="magnify" viewBox="0 0 810 1439.999935" height="1920" preserveAspectRatio="xMidYMid meet" version="1.0"><defs><g></g></defs><g fill="#000000" fill-opacity="1"><g transform="translate(111.447906, 681.589931)"><g><path d="M 226.0625 -302.90625 C 216.03125 -283.925781 205.59375 -265.421875 194.75 -247.390625 C 183.90625 -229.367188 173.398438 -211.210938 163.234375 -192.921875 C 153.078125 -174.628906 144.203125 -155.316406 136.609375 -134.984375 L 94.734375 -17.484375 C 92.296875 -12.054688 89.039062 -6.769531 84.96875 -1.625 C 80.90625 3.519531 76.707031 6.09375 72.375 6.09375 C 68.03125 6.09375 64.164062 2.367188 60.78125 -5.078125 C 57.394531 -12.535156 54.410156 -22.160156 51.828125 -33.953125 C 49.253906 -45.742188 47.019531 -58.347656 45.125 -71.765625 C 43.226562 -85.179688 41.535156 -97.988281 40.046875 -110.1875 C 38.554688 -122.382812 37.132812 -132.410156 35.78125 -140.265625 C 33.070312 -156.535156 29.816406 -173.34375 26.015625 -190.6875 C 22.222656 -208.03125 20.328125 -224.019531 20.328125 -238.65625 C 20.328125 -242.457031 21.273438 -245.375 23.171875 -247.40625 C 25.066406 -249.4375 29.40625 -250.453125 36.1875 -250.453125 C 39.976562 -250.453125 43.160156 -249.707031 45.734375 -248.21875 C 48.316406 -246.726562 50.148438 -243.269531 51.234375 -237.84375 C 52.859375 -229.71875 54.484375 -221.519531 56.109375 -213.25 C 57.734375 -204.976562 59.222656 -196.78125 60.578125 -188.65625 L 77.65625 -108.96875 C 79.007812 -102.1875 80.023438 -95.609375 80.703125 -89.234375 C 81.378906 -82.867188 83.207031 -75.894531 86.1875 -68.3125 C 87.550781 -69.9375 89.179688 -71.425781 91.078125 -72.78125 C 92.972656 -74.132812 94.328125 -75.757812 95.140625 -77.65625 C 100.285156 -90.125 105.296875 -102.59375 110.171875 -115.0625 C 115.054688 -127.53125 119.800781 -140.132812 124.40625 -152.875 C 134.707031 -180.789062 147.582031 -207.082031 163.03125 -231.75 C 178.488281 -256.414062 196.515625 -279.320312 217.109375 -300.46875 L 222.390625 -304.9375 C 222.941406 -304.664062 223.554688 -304.328125 224.234375 -303.921875 C 224.910156 -303.515625 225.519531 -303.175781 226.0625 -302.90625 Z M 226.0625 -302.90625 "></path></g></g></g><g fill="#000000" fill-opacity="1"><g transform="translate(276.511868, 681.589931)"><g><path d="M 8.125 -57.734375 C 8.664062 -62.609375 9.882812 -69.25 11.78125 -77.65625 C 13.6875 -86.0625 16.332031 -94.597656 19.71875 -103.265625 C 23.101562 -111.941406 27.164062 -119.257812 31.90625 -125.21875 C 36.65625 -131.1875 42.144531 -134.171875 48.375 -134.171875 C 51.09375 -134.171875 53.804688 -133.289062 56.515625 -131.53125 C 59.222656 -129.769531 60.578125 -127.125 60.578125 -123.59375 C 60.578125 -120.613281 59.898438 -118.445312 58.546875 -117.09375 C 50.410156 -107.332031 44.109375 -95.335938 39.640625 -81.109375 C 35.171875 -66.878906 32.9375 -53.664062 32.9375 -41.46875 C 32.9375 -38.757812 33.882812 -35.773438 35.78125 -32.515625 C 37.675781 -29.265625 39.164062 -26.148438 40.25 -23.171875 C 42.957031 -25.066406 45.867188 -26.757812 48.984375 -28.25 C 52.109375 -29.75 54.078125 -31.582031 54.890625 -33.75 C 59.765625 -44.863281 64.097656 -56.585938 67.890625 -68.921875 C 71.691406 -81.253906 73.59375 -92.972656 73.59375 -104.078125 C 73.59375 -108.421875 72.914062 -112.828125 71.5625 -117.296875 C 70.207031 -121.765625 69.53125 -126.304688 69.53125 -130.921875 C 69.53125 -134.171875 70.140625 -136.269531 71.359375 -137.21875 C 72.578125 -138.164062 74.269531 -139.722656 76.4375 -141.890625 C 82.125 -136.203125 85.644531 -128.816406 87 -119.734375 C 88.363281 -110.648438 89.046875 -102.179688 89.046875 -94.328125 C 89.046875 -84.296875 87.6875 -73.992188 84.96875 -63.421875 C 82.257812 -52.847656 78.53125 -43.085938 73.78125 -34.140625 C 69.039062 -25.203125 63.617188 -17.953125 57.515625 -12.390625 C 51.421875 -6.835938 44.851562 -4.0625 37.8125 -4.0625 C 28.863281 -4.0625 21.675781 -8.804688 16.25 -18.296875 C 10.832031 -27.785156 8.125 -40.929688 8.125 -57.734375 Z M 8.125 -57.734375 "></path></g></g></g><g fill="#000000" fill-opacity="1"><g transform="translate(377.746321, 681.589931)"><g><path d="M 127.265625 -162.625 C 125.359375 -155.039062 123.660156 -147.722656 122.171875 -140.671875 C 120.679688 -133.628906 118.039062 -130.109375 114.25 -130.109375 C 112.351562 -130.109375 110.59375 -131.125 108.96875 -133.15625 C 107.34375 -135.1875 105.847656 -137.21875 104.484375 -139.25 C 103.128906 -141.28125 101.640625 -142.296875 100.015625 -142.296875 C 98.390625 -142.296875 95.742188 -139.992188 92.078125 -135.390625 C 88.421875 -130.785156 84.492188 -125.09375 80.296875 -118.3125 C 76.097656 -111.539062 72.097656 -104.628906 68.296875 -97.578125 C 64.503906 -90.523438 61.390625 -84.695312 58.953125 -80.09375 C 53.804688 -69.789062 49.46875 -59.148438 45.9375 -48.171875 C 42.414062 -37.203125 38.351562 -26.296875 33.75 -15.453125 C 30.769531 -8.128906 27.582031 -3.453125 24.1875 -1.421875 C 20.800781 0.609375 16.804688 2.976562 12.203125 5.6875 C 10.847656 2.976562 9.148438 0.203125 7.109375 -2.640625 C 5.078125 -5.484375 4.0625 -8.265625 4.0625 -10.984375 C 4.875 -22.085938 6.09375 -33.195312 7.71875 -44.3125 C 9.351562 -55.425781 10.847656 -66.40625 12.203125 -77.25 C 12.742188 -82.125 13.285156 -88.832031 13.828125 -97.375 C 14.367188 -105.914062 15.453125 -114.585938 17.078125 -123.390625 C 18.703125 -132.203125 21.273438 -139.65625 24.796875 -145.75 C 28.328125 -151.851562 33.34375 -154.90625 39.84375 -154.90625 C 43.632812 -154.90625 46.679688 -153.207031 48.984375 -149.8125 C 51.296875 -146.425781 53.195312 -142.296875 54.6875 -137.421875 C 56.175781 -132.546875 57.328125 -127.9375 58.140625 -123.59375 C 60.578125 -125.769531 63.015625 -128.007812 65.453125 -130.3125 C 67.898438 -132.613281 70.070312 -134.984375 71.96875 -137.421875 C 76.03125 -142.296875 80.160156 -147.914062 84.359375 -154.28125 C 88.566406 -160.65625 93.109375 -166.210938 97.984375 -170.953125 C 102.859375 -175.703125 108.28125 -178.078125 114.25 -178.078125 C 118.582031 -178.078125 121.222656 -176.382812 122.171875 -173 C 123.117188 -169.613281 124.816406 -166.15625 127.265625 -162.625 Z M 127.265625 -162.625 "></path></g></g></g><g fill="#000000" fill-opacity="1"><g transform="translate(484.672676, 681.589931)"><g><path d="M 8.125 -57.734375 C 8.664062 -62.609375 9.882812 -69.25 11.78125 -77.65625 C 13.6875 -86.0625 16.332031 -94.597656 19.71875 -103.265625 C 23.101562 -111.941406 27.164062 -119.257812 31.90625 -125.21875 C 36.65625 -131.1875 42.144531 -134.171875 48.375 -134.171875 C 51.09375 -134.171875 53.804688 -133.289062 56.515625 -131.53125 C 59.222656 -129.769531 60.578125 -127.125 60.578125 -123.59375 C 60.578125 -120.613281 59.898438 -118.445312 58.546875 -117.09375 C 50.410156 -107.332031 44.109375 -95.335938 39.640625 -81.109375 C 35.171875 -66.878906 32.9375 -53.664062 32.9375 -41.46875 C 32.9375 -38.757812 33.882812 -35.773438 35.78125 -32.515625 C 37.675781 -29.265625 39.164062 -26.148438 40.25 -23.171875 C 42.957031 -25.066406 45.867188 -26.757812 48.984375 -28.25 C 52.109375 -29.75 54.078125 -31.582031 54.890625 -33.75 C 59.765625 -44.863281 64.097656 -56.585938 67.890625 -68.921875 C 71.691406 -81.253906 73.59375 -92.972656 73.59375 -104.078125 C 73.59375 -108.421875 72.914062 -112.828125 71.5625 -117.296875 C 70.207031 -121.765625 69.53125 -126.304688 69.53125 -130.921875 C 69.53125 -134.171875 70.140625 -136.269531 71.359375 -137.21875 C 72.578125 -138.164062 74.269531 -139.722656 76.4375 -141.890625 C 82.125 -136.203125 85.644531 -128.816406 87 -119.734375 C 88.363281 -110.648438 89.046875 -102.179688 89.046875 -94.328125 C 89.046875 -84.296875 87.6875 -73.992188 84.96875 -63.421875 C 82.257812 -52.847656 78.53125 -43.085938 73.78125 -34.140625 C 69.039062 -25.203125 63.617188 -17.953125 57.515625 -12.390625 C 51.421875 -6.835938 44.851562 -4.0625 37.8125 -4.0625 C 28.863281 -4.0625 21.675781 -8.804688 16.25 -18.296875 C 10.832031 -27.785156 8.125 -40.929688 8.125 -57.734375 Z M 8.125 -57.734375 "></path></g></g></g><g fill="#000000" fill-opacity="1"><g transform="translate(585.907154, 681.589931)"><g><path d="M 84.15625 -109.375 C 81.445312 -105.84375 79.007812 -102.519531 76.84375 -99.40625 C 74.675781 -96.289062 72.507812 -92.972656 70.34375 -89.453125 C 67.082031 -83.753906 63.554688 -77.039062 59.765625 -69.3125 C 55.972656 -61.59375 51.972656 -54.140625 47.765625 -46.953125 C 43.566406 -39.773438 39.160156 -33.8125 34.546875 -29.0625 C 29.941406 -24.320312 25.203125 -21.953125 20.328125 -21.953125 C 15.722656 -21.953125 12.535156 -23.644531 10.765625 -27.03125 C 9.003906 -30.425781 8.125 -34.019531 8.125 -37.8125 C 8.125 -48.925781 8.664062 -60.175781 9.75 -71.5625 C 10.84375 -82.945312 11.796875 -94.054688 12.609375 -104.890625 L 15.046875 -125.21875 C 16.398438 -134.4375 21.414062 -139.046875 30.09375 -139.046875 C 35.238281 -139.046875 38.691406 -137.488281 40.453125 -134.375 C 42.210938 -131.257812 43.09375 -127.800781 43.09375 -124 C 43.09375 -119.125 42.753906 -114.109375 42.078125 -108.953125 C 41.398438 -103.804688 41.0625 -98.796875 41.0625 -93.921875 C 41.0625 -92.296875 41.332031 -90.53125 41.875 -88.625 C 42.414062 -86.726562 42.820312 -84.96875 43.09375 -83.34375 C 44.445312 -84.425781 46.070312 -85.578125 47.96875 -86.796875 C 49.875 -88.023438 51.234375 -89.316406 52.046875 -90.671875 L 67.90625 -117.90625 C 70.882812 -121.695312 74.945312 -125.351562 80.09375 -128.875 C 85.25 -132.40625 89.992188 -134.171875 94.328125 -134.171875 C 98.390625 -134.171875 101.097656 -132.609375 102.453125 -129.484375 C 103.804688 -126.367188 104.484375 -123.1875 104.484375 -119.9375 C 104.484375 -118.3125 104.414062 -116.6875 104.28125 -115.0625 C 104.144531 -113.4375 103.941406 -111.8125 103.671875 -110.1875 C 101.234375 -90.664062 98.796875 -71.210938 96.359375 -51.828125 C 93.921875 -32.453125 91.347656 -13.007812 88.640625 6.5 C 88.367188 8.394531 87.6875 10.222656 86.59375 11.984375 C 85.507812 13.753906 84.289062 15.453125 82.9375 17.078125 C 82.394531 15.179688 81.582031 13.210938 80.5 11.171875 C 79.414062 9.140625 78.875 7.039062 78.875 4.875 C 79.6875 -13.550781 80.566406 -32.382812 81.515625 -51.625 C 82.460938 -70.875 84.289062 -89.582031 87 -107.75 C 86.457031 -107.75 85.984375 -107.953125 85.578125 -108.359375 C 85.171875 -108.765625 84.695312 -109.101562 84.15625 -109.375 Z M 84.15625 -109.375 "></path></g></g></g></svg> 